<?xml version="1.0" standalone="no"?>
<!DOCTYPE svg PUBLIC "-//W3C//DTD SVG 20010904//EN"
 "http://www.w3.org/TR/2001/REC-SVG-20010904/DTD/svg10.dtd">
<svg version="1.0" xmlns="http://www.w3.org/2000/svg"
 width="499.000000pt" height="498.000000pt" viewBox="0 0 499.000000 498.000000"
 preserveAspectRatio="xMidYMid meet">

<g transform="translate(0.000000,498.000000) scale(0.100000,-0.100000)"
fill="#000000" stroke="none">
<path d="M651 1289 c-69 -155 -80 -198 -45 -185 9 3 31 6 50 6 27 0 35 5 40
24 7 28 17 33 59 31 17 0 49 -2 73 -3 29 -1 42 -6 42 -16 0 -27 30 -46 75 -46
24 0 46 4 49 9 3 5 -27 83 -67 172 l-72 164 -66 3 -66 3 -72 -162z m154 15
c21 -51 20 -54 -20 -54 -19 0 -35 4 -35 10 0 10 32 80 37 80 1 0 10 -16 18
-36z"/>
<path d="M1042 1278 l3 -173 45 0 45 0 5 100 5 100 36 -50 c20 -28 50 -71 68
-97 35 -52 61 -64 116 -54 l35 7 0 170 0 170 -52 -3 -53 -3 -5 -93 -5 -93 -65
93 -65 93 -58 3 -57 3 2 -173z"/>
<path d="M1450 1411 l0 -40 58 -3 57 -3 5 -130 5 -130 38 -3 c63 -5 67 4 67
144 l0 123 58 3 57 3 0 35 0 35 -172 3 -173 2 0 -39z"/>
<path d="M1827 1444 c-4 -4 -7 -22 -7 -40 0 -30 3 -33 33 -36 l32 -3 3 -87 3
-87 -33 -3 c-29 -3 -33 -7 -36 -37 -2 -20 2 -37 10 -42 17 -11 199 -11 216 0
8 5 12 22 10 42 -3 30 -7 34 -36 37 l-33 3 3 87 3 87 33 3 c32 3 33 5 30 40
l-3 37 -111 3 c-60 1 -113 -1 -117 -4z"/>
<path d="M2402 1278 l3 -173 29 -3 c15 -2 39 -1 52 2 22 6 24 12 24 61 l0 54
83 3 82 3 3 38 3 37 -85 0 -86 0 0 35 0 35 105 0 105 0 0 40 0 40 -160 0 -160
0 2 -172z"/>
<path d="M2777 1443 c-4 -3 -7 -80 -7 -169 l0 -164 24 -6 c13 -3 37 -4 52 -2
28 3 29 5 32 61 l3 57 49 0 c48 0 50 -1 70 -40 32 -62 54 -80 100 -80 26 0 43
5 46 15 6 14 -48 119 -67 131 -5 3 4 18 21 34 52 49 30 124 -46 156 -35 15
-264 20 -277 7z m232 -87 c28 -33 -24 -62 -95 -54 -25 2 -29 8 -32 36 l-3 32
59 0 c38 0 64 -5 71 -14z"/>
<path d="M3288 1403 c-12 -26 -45 -101 -74 -167 -30 -65 -51 -122 -48 -127 3
-5 25 -9 50 -9 39 0 47 4 62 30 17 29 19 30 95 30 72 0 78 -2 86 -24 5 -13 17
-26 26 -30 23 -8 93 -8 98 2 3 4 -28 81 -68 172 l-72 165 -67 3 -67 3 -21 -48z
m118 -150 c-2 -2 -20 -3 -39 -1 l-34 3 20 45 19 45 19 -44 c11 -24 18 -46 15
-48z"/>
<path d="M3624 1436 c-3 -8 -4 -67 -2 -130 3 -127 14 -153 77 -190 45 -26 154
-26 207 0 65 32 79 69 79 209 l0 120 -52 3 -51 3 -4 -121 c-3 -137 -10 -150
-79 -150 -56 0 -63 17 -69 149 l-5 116 -48 3 c-35 2 -49 -1 -53 -12z"/>
<path d="M4062 1279 l3 -174 78 -3 c94 -3 183 11 217 36 14 11 36 34 48 53 32
45 28 138 -7 187 -39 55 -71 66 -214 70 l-127 4 2 -173z m217 81 c26 -14 44
-64 37 -103 -9 -50 -36 -69 -98 -71 l-53 -1 -3 93 -3 92 51 0 c28 0 59 -4 69
-10z"/>
<path d="M2094 1296 c-3 -8 -4 -25 -2 -38 3 -22 6 -23 126 -26 l122 -3 0 41 0
40 -120 0 c-95 0 -122 -3 -126 -14z"/>
</g>
</svg>
